{
    "asset": {
        "generator": "SOLIDWORKSGLTF",
        "version": "2.0"
    },
    "scene": 0,
    "scenes": [
        {
            "name": "Default",
            "nodes": [
                0,
                1
            ]
        }
    ],
    "nodes": [
        {
            "matrix": [
                0.7699112522229707,
                -2.7755575615628914e-17,
                -0.6381509724982461,
                0.0,
                -0.36732600985667924,
                0.8177244381493421,
                -0.4431685297221741,
                0.0,
                0.5218316454405846,
                0.5756098880781522,
                0.6295752461488853,
                0.0,
                0.5837780124178045,
                0.6439402396554319,
                0.7043118007033327,
                1.0
            ],
            "camera": 0,
            "name": "current camera"
        },
        {
            "mesh": 0,
            "name": "TAILCONE1"
        }
    ],
    "cameras": [
        {
            "type": "orthographic",
            "orthographic": {
                "xmag": 0.2653204513527059,
                "ymag": 0.20502034877254544,
                "zfar": 1.4706622111872891,
                "znear": 0.9427331250402954
            }
        }
    ],
    "meshes": [
        {
            "primitives": [
                {
                    "attributes": {
                        "POSITION": 1,
                        "NORMAL": 2
                    },
                    "indices": 0,
                    "material": 0,
                    "mode": 4
                }
            ]
        }
    ],
    "accessors": [
        {
            "bufferView": 0,
            "byteOffset": 0,
            "componentType": 5125,
            "count": 11514,
            "type": "SCALAR",
            "min": [
                0
            ],
            "max": [
                5057
            ]
        },
        {
            "bufferView": 1,
            "byteOffset": 0,
            "componentType": 5126,
            "count": 5058,
            "type": "VEC3",
            "min": [
                -0.038100000470876694,
                -0.1015087440609932,
                -0.10159999877214432
            ],
            "max": [
                0.038100000470876694,
                0.1015087366104126,
                0.10159999877214432
            ]
        },
        {
            "bufferView": 2,
            "byteOffset": 0,
            "componentType": 5126,
            "count": 5058,
            "type": "VEC3",
            "min": [
                -1.0,
                -1.0,
                -1.0
            ],
            "max": [
                1.0,
                1.0,
                1.0
            ]
        }
    ],
    "materials": [
        {
            "name": "defaultplastic",
            "pbrMetallicRoughness": {
                "baseColorFactor": [
                    0.000023328007701206905,
                    0.04298701041677947,
                    0.6523701237419859,
                    1.0
                ],
                "metallicFactor": 0.0,
                "roughnessFactor": 0.17999999970197678
            }
        }
    ],
    "bufferViews": [
        {
            "buffer": 0,
            "byteOffset": 0,
            "byteLength": 46056,
            "target": 34963
        },
        {
            "buffer": 0,
            "byteOffset": 46056,
            "byteLength": 60696,
            "byteStride": 12,
            "target": 34962
        },
        {
            "buffer": 0,
            "byteOffset": 106752,
            "byteLength": 60696,
            "byteStride": 12,
            "target": 34962
        }
    ],
    "buffers": [
        {
            "uri": "TAILCONE1.bin",
            "byteLength": 167448
        }
    ]
}
